<svg width="1440" height="960" viewBox="0 0 1440 960" fill="none" xmlns="http://www.w3.org/2000/svg">
  <rect width="1440" height="960" fill="#F7F3EA"/>
  <rect x="64" y="64" width="1312" height="832" rx="44" fill="url(#paint0_linear)"/>
  <circle cx="1184" cy="204" r="120" fill="#F0E0B6"/>
  <circle cx="1184" cy="204" r="88" fill="#D1A646" fill-opacity="0.55"/>
  <rect x="142" y="438" width="1158" height="360" rx="28" fill="#FFFDF8"/>
  <rect x="142" y="438" width="1158" height="360" rx="28" stroke="#D9CCB4" stroke-width="8"/>
  <rect x="214" y="292" width="304" height="426" rx="24" fill="#17325D"/>
  <rect x="242" y="320" width="248" height="204" rx="16" fill="#F8FAFD"/>
  <circle cx="366" cy="616" r="44" fill="#F0E0B6"/>
  <circle cx="366" cy="616" r="18" fill="#17325D"/>
  <rect x="696" y="276" width="274" height="470" rx="26" fill="#E9EEF5"/>
  <rect x="716" y="296" width="234" height="250" rx="18" fill="#C7D5E7"/>
  <circle cx="832" cy="624" r="78" fill="#17325D"/>
  <circle cx="832" cy="624" r="52" fill="#FFFDF8"/>
  <circle cx="832" cy="624" r="20" fill="#D1A646"/>
  <rect x="1084" y="336" width="146" height="296" rx="22" fill="#17325D"/>
  <rect x="1102" y="356" width="110" height="172" rx="14" fill="#C7D5E7"/>
  <circle cx="1158" cy="584" r="18" fill="#F0E0B6"/>
  <circle cx="1158" cy="584" r="8" fill="#17325D"/>
  <circle cx="610" cy="382" r="62" fill="#F2C27C"/>
  <path d="M528 764C532.667 690.667 560.933 645.2 612.8 627.6C664.667 610 711.2 621.333 752.4 661.6L745.6 800H531.2L528 764Z" fill="#17325D"/>
  <path d="M559 467C559 434.415 585.415 408 618 408H642C674.585 408 701 434.415 701 467V555H559V467Z" fill="#D1A646"/>
  <rect x="650" y="500" width="140" height="28" rx="14" transform="rotate(-20 650 500)" fill="#17325D"/>
  <rect x="770" y="454" width="100" height="22" rx="11" transform="rotate(40 770 454)" fill="#17325D"/>
  <rect x="560" y="560" width="134" height="24" rx="12" fill="#0E2243"/>
  <path d="M870 180C921.2 154.8 972.4 154.8 1023.6 180" stroke="#17325D" stroke-width="14" stroke-linecap="round"/>
  <path d="M896 132C944.267 110.4 992.533 110.4 1040.8 132" stroke="#17325D" stroke-width="12" stroke-linecap="round"/>
  <defs>
    <linearGradient id="paint0_linear" x1="124" y1="108" x2="1268" y2="852" gradientUnits="userSpaceOnUse">
      <stop stop-color="#FFF8E8"/>
      <stop offset="1" stop-color="#F1E5C8"/>
    </linearGradient>
  </defs>
</svg>
